<mxfile host="app.diagrams.net" modified="2024-01-29T11:50:00.281Z" agent="Mozilla/5.0 (Macintosh; Intel Mac OS X 10_15_7) AppleWebKit/537.36 (KHTML, like Gecko) Chrome/122.0.0.0 Safari/537.36" etag="Agj4gSlKnI-m6lH7NLEq" version="23.0.2" type="device">
  <diagram name="Page-1" id="1Lg70NxdFYEdoyPPMmao">
    <mxGraphModel dx="615" dy="303" grid="1" gridSize="10" guides="1" tooltips="1" connect="1" arrows="1" fold="1" page="1" pageScale="1" pageWidth="827" pageHeight="1169" math="0" shadow="0">
      <root>
        <mxCell id="0" />
        <mxCell id="1" parent="0" />
        <mxCell id="yEhgWMu11Ze8Wl3MYyZs-33" value="" style="rounded=0;whiteSpace=wrap;html=1;dashed=1;dashPattern=12 12;fillColor=#dae8fc;strokeColor=#6c8ebf;" vertex="1" parent="1">
          <mxGeometry x="280" y="190" width="160" height="93" as="geometry" />
        </mxCell>
        <mxCell id="yEhgWMu11Ze8Wl3MYyZs-32" value="" style="rounded=0;whiteSpace=wrap;html=1;dashed=1;dashPattern=12 12;fillColor=#f5f5f5;strokeColor=#666666;fontColor=#333333;" vertex="1" parent="1">
          <mxGeometry x="240" y="200" width="160" height="83" as="geometry" />
        </mxCell>
        <mxCell id="yEhgWMu11Ze8Wl3MYyZs-29" value="" style="rounded=0;whiteSpace=wrap;html=1;dashed=1;dashPattern=12 12;fillColor=#e1d5e7;strokeColor=#9673a6;" vertex="1" parent="1">
          <mxGeometry x="199" y="210" width="161" height="73" as="geometry" />
        </mxCell>
        <mxCell id="yEhgWMu11Ze8Wl3MYyZs-28" value="" style="rounded=0;whiteSpace=wrap;html=1;dashed=1;dashPattern=12 12;fillColor=#ffe6cc;strokeColor=#d79b00;" vertex="1" parent="1">
          <mxGeometry x="160" y="220" width="160" height="63" as="geometry" />
        </mxCell>
        <mxCell id="yEhgWMu11Ze8Wl3MYyZs-27" value="" style="rounded=0;whiteSpace=wrap;html=1;dashed=1;dashPattern=12 12;fillColor=#d5e8d4;strokeColor=#82b366;" vertex="1" parent="1">
          <mxGeometry x="120" y="228" width="160" height="55" as="geometry" />
        </mxCell>
        <mxCell id="yEhgWMu11Ze8Wl3MYyZs-26" value="" style="rounded=0;whiteSpace=wrap;html=1;dashed=1;dashPattern=12 12;fillColor=#dae8fc;strokeColor=#6c8ebf;" vertex="1" parent="1">
          <mxGeometry x="80" y="238" width="160" height="45" as="geometry" />
        </mxCell>
        <mxCell id="yEhgWMu11Ze8Wl3MYyZs-1" value="Data" style="rounded=1;whiteSpace=wrap;html=1;" vertex="1" parent="1">
          <mxGeometry x="84" y="240" width="30" height="40" as="geometry" />
        </mxCell>
        <mxCell id="yEhgWMu11Ze8Wl3MYyZs-2" value="Data" style="rounded=1;whiteSpace=wrap;html=1;" vertex="1" parent="1">
          <mxGeometry x="124" y="240" width="30" height="40" as="geometry" />
        </mxCell>
        <mxCell id="yEhgWMu11Ze8Wl3MYyZs-3" value="Data" style="rounded=1;whiteSpace=wrap;html=1;" vertex="1" parent="1">
          <mxGeometry x="164" y="240" width="30" height="40" as="geometry" />
        </mxCell>
        <mxCell id="yEhgWMu11Ze8Wl3MYyZs-4" value="Data" style="rounded=1;whiteSpace=wrap;html=1;" vertex="1" parent="1">
          <mxGeometry x="204" y="240" width="30" height="40" as="geometry" />
        </mxCell>
        <mxCell id="yEhgWMu11Ze8Wl3MYyZs-5" value="Data" style="rounded=1;whiteSpace=wrap;html=1;" vertex="1" parent="1">
          <mxGeometry x="244" y="240" width="30" height="40" as="geometry" />
        </mxCell>
        <mxCell id="yEhgWMu11Ze8Wl3MYyZs-6" value="Data" style="rounded=1;whiteSpace=wrap;html=1;" vertex="1" parent="1">
          <mxGeometry x="284" y="240" width="30" height="40" as="geometry" />
        </mxCell>
        <mxCell id="yEhgWMu11Ze8Wl3MYyZs-7" value="Data" style="rounded=1;whiteSpace=wrap;html=1;" vertex="1" parent="1">
          <mxGeometry x="324" y="240" width="30" height="40" as="geometry" />
        </mxCell>
        <mxCell id="yEhgWMu11Ze8Wl3MYyZs-8" value="Data" style="rounded=1;whiteSpace=wrap;html=1;" vertex="1" parent="1">
          <mxGeometry x="364" y="240" width="30" height="40" as="geometry" />
        </mxCell>
        <mxCell id="yEhgWMu11Ze8Wl3MYyZs-9" value="Data" style="rounded=1;whiteSpace=wrap;html=1;" vertex="1" parent="1">
          <mxGeometry x="404" y="240" width="30" height="40" as="geometry" />
        </mxCell>
        <mxCell id="yEhgWMu11Ze8Wl3MYyZs-17" value="" style="endArrow=none;html=1;rounded=0;" edge="1" parent="1">
          <mxGeometry width="50" height="50" relative="1" as="geometry">
            <mxPoint x="84" y="290" as="sourcePoint" />
            <mxPoint x="500" y="290" as="targetPoint" />
            <Array as="points" />
          </mxGeometry>
        </mxCell>
        <mxCell id="yEhgWMu11Ze8Wl3MYyZs-18" value="9:00" style="text;html=1;strokeColor=none;fillColor=none;align=center;verticalAlign=middle;whiteSpace=wrap;rounded=0;" vertex="1" parent="1">
          <mxGeometry x="74" y="291" width="30" height="10" as="geometry" />
        </mxCell>
        <mxCell id="yEhgWMu11Ze8Wl3MYyZs-20" value="10:00" style="text;html=1;strokeColor=none;fillColor=none;align=center;verticalAlign=middle;whiteSpace=wrap;rounded=0;" vertex="1" parent="1">
          <mxGeometry x="234" y="291" width="30" height="10" as="geometry" />
        </mxCell>
        <mxCell id="yEhgWMu11Ze8Wl3MYyZs-22" value="11:00" style="text;html=1;strokeColor=none;fillColor=none;align=center;verticalAlign=middle;whiteSpace=wrap;rounded=0;" vertex="1" parent="1">
          <mxGeometry x="394" y="291" width="30" height="10" as="geometry" />
        </mxCell>
        <mxCell id="yEhgWMu11Ze8Wl3MYyZs-30" value="" style="shape=flexArrow;endArrow=classic;html=1;rounded=0;" edge="1" parent="1">
          <mxGeometry width="50" height="50" relative="1" as="geometry">
            <mxPoint x="450" y="260.20000000000005" as="sourcePoint" />
            <mxPoint x="500" y="260.20000000000005" as="targetPoint" />
          </mxGeometry>
        </mxCell>
      </root>
    </mxGraphModel>
  </diagram>
</mxfile>
